<?xml version="1.0" encoding="UTF-8" standalone="no"?><!DOCTYPE svg PUBLIC "-//W3C//DTD SVG 1.1//EN" "http://www.w3.org/Graphics/SVG/1.1/DTD/svg11.dtd"><svg width="100%" height="100%" viewBox="0 0 20 20" version="1.1" xmlns="http://www.w3.org/2000/svg" xmlns:xlink="http://www.w3.org/1999/xlink" xml:space="preserve" xmlns:serif="http://www.serif.com/" style="fill-rule:evenodd;clip-rule:evenodd;stroke-linejoin:round;stroke-miterlimit:2;"><path d="M3.714,18c-0.471,0 -0.875,-0.168 -1.211,-0.504c-0.336,-0.336 -0.504,-0.739 -0.504,-1.211l0,-12.571c0,-0.471 0.168,-0.875 0.504,-1.211c0.336,-0.336 0.739,-0.504 1.211,-0.504l6.286,0l0,1.714l-6.286,0l0,12.571l12.571,0l0,-6.286l1.714,0l0,6.286c0,0.471 -0.168,0.875 -0.504,1.211c-0.336,0.336 -0.739,0.504 -1.211,0.504l-12.571,0Zm4.071,-4.571l-1.214,-1.214l8.5,-8.5l-2.786,0l0,-1.714l5.714,0l0,5.714l-1.714,0l0,-2.786l-8.5,8.5Z" style="fill:#e3e3e3;fill-rule:nonzero;"/></svg>