<?xml version="1.0" encoding="UTF-8" standalone="no"?><!DOCTYPE svg PUBLIC "-//W3C//DTD SVG 1.1//EN" "http://www.w3.org/Graphics/SVG/1.1/DTD/svg11.dtd"><svg width="100%" height="100%" viewBox="0 0 20 20" version="1.1" xmlns="http://www.w3.org/2000/svg" xmlns:xlink="http://www.w3.org/1999/xlink" xml:space="preserve" xmlns:serif="http://www.serif.com/" style="fill-rule:evenodd;clip-rule:evenodd;stroke-linecap:round;stroke-linejoin:round;stroke-miterlimit:1.5;"><path d="M2,16.286l0,-12.571c0,-0.471 0.168,-0.875 0.504,-1.211c0.336,-0.336 0.739,-0.504 1.211,-0.504l12.571,0c0.471,0 0.875,0.168 1.211,0.504c0.336,0.336 0.504,0.739 0.504,1.211l0,12.571c0,0.471 -0.168,0.875 -0.504,1.211c-0.336,0.336 -0.739,0.504 -1.211,0.504l-12.571,0c-0.471,0 -0.875,-0.168 -1.211,-0.504c-0.336,-0.336 -0.504,-0.739 -0.504,-1.211Zm14.286,-12.571l-12.571,0l-0,12.571l12.571,0l0,-12.571Z" style="fill:#e3e3e3;"/><circle cx="10" cy="10" r="4.183" style="fill:none;stroke:#e3e3e3;stroke-width:1.5px;"/></svg>