<?xml version="1.0" encoding="UTF-8" standalone="no"?><!DOCTYPE svg PUBLIC "-//W3C//DTD SVG 1.1//EN" "http://www.w3.org/Graphics/SVG/1.1/DTD/svg11.dtd"><svg width="100%" height="100%" viewBox="0 0 20 20" version="1.1" xmlns="http://www.w3.org/2000/svg" xmlns:xlink="http://www.w3.org/1999/xlink" xml:space="preserve" xmlns:serif="http://www.serif.com/" style="fill-rule:evenodd;clip-rule:evenodd;stroke-linejoin:round;stroke-miterlimit:2;"><path d="M2,16.286l0,-12.571c0,-0.471 0.168,-0.875 0.504,-1.211c0.336,-0.336 0.739,-0.504 1.211,-0.504l12.571,0c0.471,0 0.875,0.168 1.211,0.504c0.336,0.336 0.504,0.739 0.504,1.211l0,12.571c0,0.471 -0.168,0.875 -0.504,1.211c-0.336,0.336 -0.739,0.504 -1.211,0.504l-12.571,0c-0.471,0 -0.875,-0.168 -1.211,-0.504c-0.336,-0.336 -0.504,-0.739 -0.504,-1.211Zm14.286,-12.571l-12.571,0l-0,12.571l12.571,0l0,-12.571Z" style="fill:#e3e3e3;"/><path d="M8.717,9.654c-0.001,-0.046 -0.002,-0.082 -0.002,-0.581c-0,-0.441 -0.017,-0.455 0.014,-0.468c0.011,-0.005 0.011,-0.004 1.397,-0.004c0.35,0 0.358,-0.003 0.368,0.019c0.007,0.016 0.006,0.017 0.006,0.518c-0,0.177 -0.013,0.179 -0.003,0.19c0.002,0.002 0.028,0.002 0.033,-0.002c0.009,-0.007 0.001,-0.012 0.077,-0.118c0.043,-0.06 0.144,-0.171 0.157,-0.185c0.385,-0.421 0.844,-0.49 0.913,-0.506c0.36,-0.084 0.791,-0.026 0.882,-0.004c0.064,0.015 0.225,0.045 0.342,0.093c0.148,0.06 0.148,0.058 0.287,0.137c0.69,0.391 0.864,1.166 0.89,1.259c0.092,0.332 0.104,0.78 0.105,0.837c0,0.001 0,3.099 -0,3.101c-0.001,0.069 -0.026,0.06 -0.095,0.06c-0.459,-0 -0.919,-0 -1.378,-0c-0.296,-0 -0.305,0.004 -0.316,-0.021c-0.005,-0.012 -0.005,-0.012 -0.005,-2.021c0,-0.987 0.007,-1.064 -0.042,-1.293c-0.026,-0.125 -0.086,-0.382 -0.279,-0.564c-0.116,-0.11 -0.227,-0.148 -0.304,-0.173c-0.163,-0.053 -0.38,-0.046 -0.497,-0.017c-0.209,0.052 -0.342,0.141 -0.447,0.243c-0.134,0.13 -0.213,0.287 -0.217,0.298c-0.064,0.143 -0.087,0.193 -0.1,0.408c-0.005,0.088 -0.001,2.953 -0.002,3.078c-0.001,0.068 -0.026,0.06 -0.094,0.06c-0.131,0 -1.338,0.001 -1.636,-0c-0.013,-0 -0.057,0.006 -0.063,-0.039c-0.001,-0.007 -0.001,-0.282 -0,-0.301c0.008,-0.283 0,-0.283 0.003,-0.538c0.007,-0.673 0.007,-1.149 0.007,-3.467Z" style="fill:#e3e3e3;"/><path d="M7.719,11.011c-0,2.946 0,2.946 -0.001,2.95c-0.006,0.039 -0.042,0.038 -0.046,0.038c-0.008,0 -1.698,0 -1.7,0c-0.056,-0.002 -0.051,-0.039 -0.051,-0.082c-0,-0.422 -0.001,-5.266 0,-5.276c0.005,-0.038 0.027,-0.041 0.05,-0.042c0.004,-0 1.696,-0 1.701,0c0.048,0.004 0.047,0.031 0.047,0.064c0,0.001 0,0.001 0,2.347Z" style="fill:#e3e3e3;"/><path d="M7.81,6.724c0.033,0.165 0.056,0.343 -0.071,0.628c-0.034,0.076 -0.159,0.27 -0.37,0.383c-0.344,0.184 -0.752,0.144 -0.964,0.06c-0.344,-0.136 -0.471,-0.369 -0.54,-0.552c-0.063,-0.166 -0.071,-0.49 0.027,-0.686c0.026,-0.052 0.075,-0.186 0.249,-0.33c0.345,-0.287 0.876,-0.261 1.142,-0.14c0.06,0.027 0.36,0.151 0.487,0.507c0.023,0.065 0.023,0.065 0.041,0.131Z" style="fill:#e3e3e3;"/></svg>