<?xml version="1.0" encoding="UTF-8" standalone="no"?><!DOCTYPE svg PUBLIC "-//W3C//DTD SVG 1.1//EN" "http://www.w3.org/Graphics/SVG/1.1/DTD/svg11.dtd"><svg width="100%" height="100%" viewBox="0 0 12 12" version="1.1" xmlns="http://www.w3.org/2000/svg" xmlns:xlink="http://www.w3.org/1999/xlink" xml:space="preserve" xmlns:serif="http://www.serif.com/" style="fill-rule:evenodd;clip-rule:evenodd;stroke-linecap:round;stroke-linejoin:round;stroke-miterlimit:1.5;"><rect id="Vector-Icon" serif:id="Vector Icon" x="-0" y="0" width="12" height="12" style="fill:none;"/><g id="Layer1"><rect x="9.264" y="2.402" width="2.41" height="2.41" style="fill:#fff;"/><rect x="6.563" y="5.038" width="2.399" height="1.958" style="fill:#fff;"/><rect x="9.264" y="7.221" width="2.41" height="2.41" style="fill:#fff;"/><rect x="1.32" y="8.986" width="2.41" height="2.41" style="fill:#fff;"/><rect x="1.32" y="0.637" width="2.41" height="2.41" style="fill:#fff;"/><path d="M10.618,8.781c-0.941,1.547 -2.643,2.582 -4.585,2.582c-2.96,-0 -5.363,-2.403 -5.363,-5.363c0,-2.96 2.403,-5.363 5.363,-5.363c2.014,0 3.77,1.113 4.687,2.757m-4.687,0.568c1.124,0 2.043,0.688 2.038,2.038c-0.006,1.39 -0.914,2.038 -2.038,2.038c-1.125,-0 -2.038,-0.913 -2.038,-2.038c-0,-1.125 0.913,-2.038 2.038,-2.038Z" style="fill:none;stroke:#fff;stroke-width:0.75px;"/></g><path d="M7.192,6l3.808,-3" style="fill:none;stroke:#fff;stroke-width:0.75px;"/><path d="M7.192,6l3.808,3" style="fill:none;stroke:#fff;stroke-width:0.75px;"/></svg>