<svg xmlns="http://www.w3.org/2000/svg" height="20px" viewBox="0 -960 960 960" width="20px" fill="#e3e3e3"><path d="M349.5-526.29q10.5-10.29 10.5-25.5t-10.29-25.71q-10.29-10.5-25.5-10.5t-25.71 10.29q-10.5 10.29-10.5 25.5t10.29 25.71q10.29 10.5 25.5 10.5t25.71-10.29Zm156 0q10.5-10.29 10.5-25.5t-10.29-25.71q-10.29-10.5-25.5-10.5t-25.71 10.29q-10.5 10.29-10.5 25.5t10.29 25.71q10.29 10.5 25.5 10.5t25.71-10.29Zm156 0q10.5-10.29 10.5-25.5t-10.29-25.71q-10.29-10.5-25.5-10.5t-25.71 10.29q-10.5 10.29-10.5 25.5t10.29 25.71q10.29 10.5 25.5 10.5t25.71-10.29ZM96-96v-696q0-29.7 21.15-50.85Q138.3-864 168-864h624q29.7 0 50.85 21.15Q864-821.7 864-792v480q0 29.7-21.15 50.85Q821.7-240 792-240H240L96-96Zm114-216h582v-480H168v522l42-42Zm-42 0v-480 480Z"/></svg>